<mxfile host="app.diagrams.net" modified="2024-03-23T01:36:28.149Z" agent="Mozilla/5.0 (Windows NT 10.0; Win64; x64) AppleWebKit/537.36 (KHTML, like Gecko) Chrome/122.0.0.0 Safari/537.36" etag="XJ8s6_IEmiEixFkgaGLS" version="24.0.2" type="github" pages="5">
  <diagram id="R2lEEEUBdFMjLlhIrx00" name="m er escuela ">
    <mxGraphModel dx="880" dy="426" grid="1" gridSize="10" guides="1" tooltips="1" connect="1" arrows="1" fold="1" page="1" pageScale="1" pageWidth="850" pageHeight="1100" math="0" shadow="0" extFonts="Permanent Marker^https://fonts.googleapis.com/css?family=Permanent+Marker">
      <root>
        <mxCell id="0" />
        <mxCell id="1" parent="0" />
        <mxCell id="QGqmHzYcdSEPTjJ64K0t-23" style="edgeStyle=orthogonalEdgeStyle;rounded=0;orthogonalLoop=1;jettySize=auto;html=1;exitX=0.5;exitY=1;exitDx=0;exitDy=0;entryX=0.5;entryY=0;entryDx=0;entryDy=0;endArrow=ERone;endFill=0;" edge="1" parent="1" source="QGqmHzYcdSEPTjJ64K0t-1" target="QGqmHzYcdSEPTjJ64K0t-13">
          <mxGeometry relative="1" as="geometry" />
        </mxCell>
        <mxCell id="QGqmHzYcdSEPTjJ64K0t-1" value="alumno" style="rounded=1;arcSize=10;whiteSpace=wrap;html=1;align=center;fillColor=#d5e8d4;strokeColor=#82b366;" vertex="1" parent="1">
          <mxGeometry x="270" y="240" width="100" height="40" as="geometry" />
        </mxCell>
        <mxCell id="QGqmHzYcdSEPTjJ64K0t-16" style="edgeStyle=orthogonalEdgeStyle;rounded=0;orthogonalLoop=1;jettySize=auto;html=1;exitX=1;exitY=0.5;exitDx=0;exitDy=0;entryX=0;entryY=0.5;entryDx=0;entryDy=0;endArrow=baseDash;endFill=0;" edge="1" parent="1" source="QGqmHzYcdSEPTjJ64K0t-2" target="QGqmHzYcdSEPTjJ64K0t-1">
          <mxGeometry relative="1" as="geometry" />
        </mxCell>
        <mxCell id="QGqmHzYcdSEPTjJ64K0t-2" value="id_alumno" style="ellipse;whiteSpace=wrap;html=1;align=center;fontStyle=4;fillColor=#d5e8d4;strokeColor=#82b366;" vertex="1" parent="1">
          <mxGeometry x="30" y="120" width="100" height="40" as="geometry" />
        </mxCell>
        <mxCell id="QGqmHzYcdSEPTjJ64K0t-20" style="edgeStyle=orthogonalEdgeStyle;rounded=0;orthogonalLoop=1;jettySize=auto;html=1;exitX=1;exitY=0.5;exitDx=0;exitDy=0;entryX=0;entryY=0.5;entryDx=0;entryDy=0;endArrow=baseDash;endFill=0;" edge="1" parent="1" source="QGqmHzYcdSEPTjJ64K0t-3" target="QGqmHzYcdSEPTjJ64K0t-1">
          <mxGeometry relative="1" as="geometry" />
        </mxCell>
        <mxCell id="QGqmHzYcdSEPTjJ64K0t-3" value="correo" style="ellipse;whiteSpace=wrap;html=1;align=center;fillColor=#d5e8d4;strokeColor=#82b366;" vertex="1" parent="1">
          <mxGeometry x="30" y="380" width="100" height="40" as="geometry" />
        </mxCell>
        <mxCell id="QGqmHzYcdSEPTjJ64K0t-17" style="edgeStyle=orthogonalEdgeStyle;rounded=0;orthogonalLoop=1;jettySize=auto;html=1;exitX=1;exitY=0.5;exitDx=0;exitDy=0;entryX=0;entryY=0.5;entryDx=0;entryDy=0;endArrow=baseDash;endFill=0;" edge="1" parent="1" source="QGqmHzYcdSEPTjJ64K0t-4" target="QGqmHzYcdSEPTjJ64K0t-1">
          <mxGeometry relative="1" as="geometry" />
        </mxCell>
        <mxCell id="QGqmHzYcdSEPTjJ64K0t-4" value="nombre_completo" style="ellipse;whiteSpace=wrap;html=1;align=center;fillColor=#d5e8d4;strokeColor=#82b366;" vertex="1" parent="1">
          <mxGeometry x="30" y="180" width="100" height="40" as="geometry" />
        </mxCell>
        <mxCell id="QGqmHzYcdSEPTjJ64K0t-18" style="edgeStyle=orthogonalEdgeStyle;rounded=0;orthogonalLoop=1;jettySize=auto;html=1;exitX=1;exitY=0.5;exitDx=0;exitDy=0;entryX=0;entryY=0.5;entryDx=0;entryDy=0;endArrow=baseDash;endFill=0;" edge="1" parent="1" source="QGqmHzYcdSEPTjJ64K0t-5" target="QGqmHzYcdSEPTjJ64K0t-1">
          <mxGeometry relative="1" as="geometry" />
        </mxCell>
        <mxCell id="QGqmHzYcdSEPTjJ64K0t-5" value="grupo" style="ellipse;whiteSpace=wrap;html=1;align=center;fillColor=#d5e8d4;strokeColor=#82b366;" vertex="1" parent="1">
          <mxGeometry x="30" y="250" width="100" height="40" as="geometry" />
        </mxCell>
        <mxCell id="QGqmHzYcdSEPTjJ64K0t-19" style="edgeStyle=orthogonalEdgeStyle;rounded=0;orthogonalLoop=1;jettySize=auto;html=1;exitX=1;exitY=0.5;exitDx=0;exitDy=0;entryX=0;entryY=0.5;entryDx=0;entryDy=0;endArrow=baseDash;endFill=0;" edge="1" parent="1" source="QGqmHzYcdSEPTjJ64K0t-6" target="QGqmHzYcdSEPTjJ64K0t-1">
          <mxGeometry relative="1" as="geometry" />
        </mxCell>
        <mxCell id="QGqmHzYcdSEPTjJ64K0t-6" value="matricula" style="ellipse;whiteSpace=wrap;html=1;align=center;fillColor=#d5e8d4;strokeColor=#82b366;" vertex="1" parent="1">
          <mxGeometry x="30" y="320" width="100" height="40" as="geometry" />
        </mxCell>
        <mxCell id="QGqmHzYcdSEPTjJ64K0t-22" style="edgeStyle=orthogonalEdgeStyle;rounded=0;orthogonalLoop=1;jettySize=auto;html=1;exitX=0.5;exitY=0;exitDx=0;exitDy=0;entryX=0.5;entryY=1;entryDx=0;entryDy=0;endArrow=ERmany;endFill=0;" edge="1" parent="1" source="QGqmHzYcdSEPTjJ64K0t-13" target="QGqmHzYcdSEPTjJ64K0t-1">
          <mxGeometry relative="1" as="geometry" />
        </mxCell>
        <mxCell id="QGqmHzYcdSEPTjJ64K0t-26" style="edgeStyle=orthogonalEdgeStyle;rounded=0;orthogonalLoop=1;jettySize=auto;html=1;exitX=0.5;exitY=1;exitDx=0;exitDy=0;entryX=0.5;entryY=0;entryDx=0;entryDy=0;endArrow=baseDash;endFill=0;" edge="1" parent="1" source="QGqmHzYcdSEPTjJ64K0t-13" target="QGqmHzYcdSEPTjJ64K0t-25">
          <mxGeometry relative="1" as="geometry" />
        </mxCell>
        <mxCell id="QGqmHzYcdSEPTjJ64K0t-13" value="realiza" style="shape=rhombus;perimeter=rhombusPerimeter;whiteSpace=wrap;html=1;align=center;" vertex="1" parent="1">
          <mxGeometry x="260" y="400" width="120" height="60" as="geometry" />
        </mxCell>
        <mxCell id="QGqmHzYcdSEPTjJ64K0t-40" style="edgeStyle=orthogonalEdgeStyle;rounded=0;orthogonalLoop=1;jettySize=auto;html=1;exitX=1;exitY=0.5;exitDx=0;exitDy=0;entryX=0;entryY=0.5;entryDx=0;entryDy=0;endArrow=ERone;endFill=0;" edge="1" parent="1" source="QGqmHzYcdSEPTjJ64K0t-25" target="QGqmHzYcdSEPTjJ64K0t-36">
          <mxGeometry relative="1" as="geometry" />
        </mxCell>
        <mxCell id="QGqmHzYcdSEPTjJ64K0t-25" value="practicas" style="rounded=1;arcSize=10;whiteSpace=wrap;html=1;align=center;fillColor=#dae8fc;strokeColor=#6c8ebf;" vertex="1" parent="1">
          <mxGeometry x="270" y="560" width="100" height="40" as="geometry" />
        </mxCell>
        <mxCell id="QGqmHzYcdSEPTjJ64K0t-32" style="edgeStyle=orthogonalEdgeStyle;rounded=0;orthogonalLoop=1;jettySize=auto;html=1;exitX=1;exitY=0.5;exitDx=0;exitDy=0;entryX=0;entryY=0.5;entryDx=0;entryDy=0;endArrow=baseDash;endFill=0;" edge="1" parent="1" source="QGqmHzYcdSEPTjJ64K0t-27" target="QGqmHzYcdSEPTjJ64K0t-25">
          <mxGeometry relative="1" as="geometry" />
        </mxCell>
        <mxCell id="QGqmHzYcdSEPTjJ64K0t-27" value="id_laboratorio" style="ellipse;whiteSpace=wrap;html=1;align=center;fontStyle=4;fillColor=#dae8fc;strokeColor=#6c8ebf;" vertex="1" parent="1">
          <mxGeometry x="60" y="520" width="100" height="40" as="geometry" />
        </mxCell>
        <mxCell id="QGqmHzYcdSEPTjJ64K0t-33" style="edgeStyle=orthogonalEdgeStyle;rounded=0;orthogonalLoop=1;jettySize=auto;html=1;exitX=1;exitY=0.5;exitDx=0;exitDy=0;entryX=0;entryY=0.5;entryDx=0;entryDy=0;endArrow=baseDash;endFill=0;" edge="1" parent="1" source="QGqmHzYcdSEPTjJ64K0t-28" target="QGqmHzYcdSEPTjJ64K0t-25">
          <mxGeometry relative="1" as="geometry" />
        </mxCell>
        <mxCell id="jQDCcYUZastG5gLN5tcl-1" value="" style="edgeStyle=orthogonalEdgeStyle;rounded=0;orthogonalLoop=1;jettySize=auto;html=1;" edge="1" parent="1" source="QGqmHzYcdSEPTjJ64K0t-28" target="QGqmHzYcdSEPTjJ64K0t-31">
          <mxGeometry relative="1" as="geometry" />
        </mxCell>
        <mxCell id="QGqmHzYcdSEPTjJ64K0t-28" value="profesor" style="ellipse;whiteSpace=wrap;html=1;align=center;fillColor=#dae8fc;strokeColor=#6c8ebf;" vertex="1" parent="1">
          <mxGeometry x="60" y="590" width="100" height="40" as="geometry" />
        </mxCell>
        <mxCell id="QGqmHzYcdSEPTjJ64K0t-34" style="edgeStyle=orthogonalEdgeStyle;rounded=0;orthogonalLoop=1;jettySize=auto;html=1;exitX=1;exitY=0.5;exitDx=0;exitDy=0;entryX=0;entryY=0.5;entryDx=0;entryDy=0;endArrow=baseDash;endFill=0;" edge="1" parent="1" source="QGqmHzYcdSEPTjJ64K0t-29" target="QGqmHzYcdSEPTjJ64K0t-25">
          <mxGeometry relative="1" as="geometry" />
        </mxCell>
        <mxCell id="QGqmHzYcdSEPTjJ64K0t-29" value="nomalumno" style="ellipse;whiteSpace=wrap;html=1;align=center;fillColor=#dae8fc;strokeColor=#6c8ebf;" vertex="1" parent="1">
          <mxGeometry x="60" y="660" width="100" height="40" as="geometry" />
        </mxCell>
        <mxCell id="QGqmHzYcdSEPTjJ64K0t-35" style="edgeStyle=orthogonalEdgeStyle;rounded=0;orthogonalLoop=1;jettySize=auto;html=1;exitX=1;exitY=0.5;exitDx=0;exitDy=0;entryX=0;entryY=0.5;entryDx=0;entryDy=0;endArrow=baseDash;endFill=0;" edge="1" parent="1" source="QGqmHzYcdSEPTjJ64K0t-31" target="QGqmHzYcdSEPTjJ64K0t-25">
          <mxGeometry relative="1" as="geometry" />
        </mxCell>
        <mxCell id="QGqmHzYcdSEPTjJ64K0t-31" value="practica" style="ellipse;whiteSpace=wrap;html=1;align=center;fillColor=#dae8fc;strokeColor=#6c8ebf;" vertex="1" parent="1">
          <mxGeometry x="60" y="730" width="100" height="40" as="geometry" />
        </mxCell>
        <mxCell id="QGqmHzYcdSEPTjJ64K0t-39" style="edgeStyle=orthogonalEdgeStyle;rounded=0;orthogonalLoop=1;jettySize=auto;html=1;exitX=0;exitY=0.5;exitDx=0;exitDy=0;entryX=1;entryY=0.5;entryDx=0;entryDy=0;endArrow=ERmany;endFill=0;" edge="1" parent="1" source="QGqmHzYcdSEPTjJ64K0t-36" target="QGqmHzYcdSEPTjJ64K0t-25">
          <mxGeometry relative="1" as="geometry" />
        </mxCell>
        <mxCell id="QGqmHzYcdSEPTjJ64K0t-42" style="edgeStyle=orthogonalEdgeStyle;rounded=0;orthogonalLoop=1;jettySize=auto;html=1;exitX=1;exitY=0.5;exitDx=0;exitDy=0;entryX=0;entryY=0.5;entryDx=0;entryDy=0;endArrow=baseDash;endFill=0;" edge="1" parent="1" source="QGqmHzYcdSEPTjJ64K0t-36" target="QGqmHzYcdSEPTjJ64K0t-41">
          <mxGeometry relative="1" as="geometry" />
        </mxCell>
        <mxCell id="QGqmHzYcdSEPTjJ64K0t-36" value="tiene" style="shape=rhombus;perimeter=rhombusPerimeter;whiteSpace=wrap;html=1;align=center;" vertex="1" parent="1">
          <mxGeometry x="550" y="550" width="120" height="60" as="geometry" />
        </mxCell>
        <mxCell id="QGqmHzYcdSEPTjJ64K0t-41" value="profesor" style="rounded=1;arcSize=10;whiteSpace=wrap;html=1;align=center;fillColor=#e1d5e7;strokeColor=#9673a6;" vertex="1" parent="1">
          <mxGeometry x="780" y="560" width="100" height="40" as="geometry" />
        </mxCell>
        <mxCell id="QGqmHzYcdSEPTjJ64K0t-50" style="edgeStyle=orthogonalEdgeStyle;rounded=0;orthogonalLoop=1;jettySize=auto;html=1;exitX=0;exitY=0.5;exitDx=0;exitDy=0;entryX=1;entryY=0.5;entryDx=0;entryDy=0;endArrow=baseDash;endFill=0;" edge="1" parent="1" source="QGqmHzYcdSEPTjJ64K0t-43" target="QGqmHzYcdSEPTjJ64K0t-41">
          <mxGeometry relative="1" as="geometry" />
        </mxCell>
        <mxCell id="QGqmHzYcdSEPTjJ64K0t-43" value="id_profesor" style="ellipse;whiteSpace=wrap;html=1;align=center;fontStyle=4;fillColor=#e1d5e7;strokeColor=#9673a6;" vertex="1" parent="1">
          <mxGeometry x="1000" y="360" width="100" height="40" as="geometry" />
        </mxCell>
        <mxCell id="QGqmHzYcdSEPTjJ64K0t-51" style="edgeStyle=orthogonalEdgeStyle;rounded=0;orthogonalLoop=1;jettySize=auto;html=1;exitX=0;exitY=0.5;exitDx=0;exitDy=0;entryX=1;entryY=0.5;entryDx=0;entryDy=0;endArrow=baseDash;endFill=0;" edge="1" parent="1" source="QGqmHzYcdSEPTjJ64K0t-44" target="QGqmHzYcdSEPTjJ64K0t-41">
          <mxGeometry relative="1" as="geometry" />
        </mxCell>
        <mxCell id="QGqmHzYcdSEPTjJ64K0t-44" value="nombre" style="ellipse;whiteSpace=wrap;html=1;align=center;fillColor=#e1d5e7;strokeColor=#9673a6;" vertex="1" parent="1">
          <mxGeometry x="1000" y="430" width="100" height="40" as="geometry" />
        </mxCell>
        <mxCell id="QGqmHzYcdSEPTjJ64K0t-52" style="edgeStyle=orthogonalEdgeStyle;rounded=0;orthogonalLoop=1;jettySize=auto;html=1;exitX=0;exitY=0.5;exitDx=0;exitDy=0;entryX=1;entryY=0.5;entryDx=0;entryDy=0;endArrow=baseDash;endFill=0;" edge="1" parent="1" source="QGqmHzYcdSEPTjJ64K0t-46" target="QGqmHzYcdSEPTjJ64K0t-41">
          <mxGeometry relative="1" as="geometry" />
        </mxCell>
        <mxCell id="QGqmHzYcdSEPTjJ64K0t-46" value="apellidos" style="ellipse;whiteSpace=wrap;html=1;align=center;fillColor=#e1d5e7;strokeColor=#9673a6;" vertex="1" parent="1">
          <mxGeometry x="1000" y="490" width="100" height="40" as="geometry" />
        </mxCell>
        <mxCell id="QGqmHzYcdSEPTjJ64K0t-55" style="edgeStyle=orthogonalEdgeStyle;rounded=0;orthogonalLoop=1;jettySize=auto;html=1;exitX=0;exitY=0.5;exitDx=0;exitDy=0;entryX=1;entryY=0.5;entryDx=0;entryDy=0;endArrow=baseDash;endFill=0;" edge="1" parent="1" source="QGqmHzYcdSEPTjJ64K0t-47" target="QGqmHzYcdSEPTjJ64K0t-41">
          <mxGeometry relative="1" as="geometry" />
        </mxCell>
        <mxCell id="QGqmHzYcdSEPTjJ64K0t-47" value="correo" style="ellipse;whiteSpace=wrap;html=1;align=center;fillColor=#e1d5e7;strokeColor=#9673a6;" vertex="1" parent="1">
          <mxGeometry x="1000" y="700" width="100" height="40" as="geometry" />
        </mxCell>
        <mxCell id="QGqmHzYcdSEPTjJ64K0t-53" style="edgeStyle=orthogonalEdgeStyle;rounded=0;orthogonalLoop=1;jettySize=auto;html=1;exitX=0;exitY=0.5;exitDx=0;exitDy=0;entryX=1;entryY=0.5;entryDx=0;entryDy=0;endArrow=baseDash;endFill=0;" edge="1" parent="1" source="QGqmHzYcdSEPTjJ64K0t-48" target="QGqmHzYcdSEPTjJ64K0t-41">
          <mxGeometry relative="1" as="geometry" />
        </mxCell>
        <mxCell id="QGqmHzYcdSEPTjJ64K0t-48" value="fechnac" style="ellipse;whiteSpace=wrap;html=1;align=center;fillColor=#e1d5e7;strokeColor=#9673a6;" vertex="1" parent="1">
          <mxGeometry x="1000" y="560" width="100" height="40" as="geometry" />
        </mxCell>
        <mxCell id="QGqmHzYcdSEPTjJ64K0t-54" style="edgeStyle=orthogonalEdgeStyle;rounded=0;orthogonalLoop=1;jettySize=auto;html=1;exitX=0;exitY=0.5;exitDx=0;exitDy=0;entryX=1;entryY=0.5;entryDx=0;entryDy=0;endArrow=baseDash;endFill=0;" edge="1" parent="1" source="QGqmHzYcdSEPTjJ64K0t-49" target="QGqmHzYcdSEPTjJ64K0t-41">
          <mxGeometry relative="1" as="geometry" />
        </mxCell>
        <mxCell id="QGqmHzYcdSEPTjJ64K0t-49" value="titulo" style="ellipse;whiteSpace=wrap;html=1;align=center;fillColor=#e1d5e7;strokeColor=#9673a6;" vertex="1" parent="1">
          <mxGeometry x="1000" y="630" width="100" height="40" as="geometry" />
        </mxCell>
      </root>
    </mxGraphModel>
  </diagram>
  <diagram id="NB-nWY8OK2npp3aN44Ez" name="m er tienda comercial">
    <mxGraphModel dx="880" dy="426" grid="1" gridSize="10" guides="1" tooltips="1" connect="1" arrows="1" fold="1" page="1" pageScale="1" pageWidth="827" pageHeight="1169" math="0" shadow="0">
      <root>
        <mxCell id="0" />
        <mxCell id="1" parent="0" />
        <mxCell id="fkgIZpiEhv-J8zdVLxft-15" style="edgeStyle=orthogonalEdgeStyle;rounded=0;orthogonalLoop=1;jettySize=auto;html=1;exitX=1;exitY=0.5;exitDx=0;exitDy=0;endArrow=ERone;endFill=0;" edge="1" parent="1" source="fkgIZpiEhv-J8zdVLxft-1">
          <mxGeometry relative="1" as="geometry">
            <mxPoint x="540" y="220" as="targetPoint" />
          </mxGeometry>
        </mxCell>
        <mxCell id="fkgIZpiEhv-J8zdVLxft-1" value="vendedor" style="rounded=1;arcSize=10;whiteSpace=wrap;html=1;align=center;fillColor=#f8cecc;strokeColor=#b85450;" vertex="1" parent="1">
          <mxGeometry x="314" y="200" width="100" height="40" as="geometry" />
        </mxCell>
        <mxCell id="fkgIZpiEhv-J8zdVLxft-7" style="edgeStyle=orthogonalEdgeStyle;rounded=0;orthogonalLoop=1;jettySize=auto;html=1;exitX=1;exitY=0.5;exitDx=0;exitDy=0;entryX=0;entryY=0.5;entryDx=0;entryDy=0;endArrow=baseDash;endFill=0;" edge="1" parent="1" source="fkgIZpiEhv-J8zdVLxft-2" target="fkgIZpiEhv-J8zdVLxft-1">
          <mxGeometry relative="1" as="geometry" />
        </mxCell>
        <mxCell id="fkgIZpiEhv-J8zdVLxft-2" value="id_vendedor" style="ellipse;whiteSpace=wrap;html=1;align=center;fontStyle=4;fillColor=#f8cecc;strokeColor=#b85450;" vertex="1" parent="1">
          <mxGeometry x="100" y="90" width="100" height="40" as="geometry" />
        </mxCell>
        <mxCell id="fkgIZpiEhv-J8zdVLxft-8" style="edgeStyle=orthogonalEdgeStyle;rounded=0;orthogonalLoop=1;jettySize=auto;html=1;exitX=1;exitY=0.5;exitDx=0;exitDy=0;entryX=0;entryY=0.5;entryDx=0;entryDy=0;endArrow=baseDash;endFill=0;" edge="1" parent="1" source="fkgIZpiEhv-J8zdVLxft-3" target="fkgIZpiEhv-J8zdVLxft-1">
          <mxGeometry relative="1" as="geometry" />
        </mxCell>
        <mxCell id="fkgIZpiEhv-J8zdVLxft-3" value="nombre" style="ellipse;whiteSpace=wrap;html=1;align=center;fillColor=#f8cecc;strokeColor=#b85450;" vertex="1" parent="1">
          <mxGeometry x="100" y="170" width="100" height="40" as="geometry" />
        </mxCell>
        <mxCell id="fkgIZpiEhv-J8zdVLxft-9" style="edgeStyle=orthogonalEdgeStyle;rounded=0;orthogonalLoop=1;jettySize=auto;html=1;exitX=1;exitY=0.5;exitDx=0;exitDy=0;entryX=0;entryY=0.5;entryDx=0;entryDy=0;endArrow=baseDash;endFill=0;" edge="1" parent="1" source="fkgIZpiEhv-J8zdVLxft-4" target="fkgIZpiEhv-J8zdVLxft-1">
          <mxGeometry relative="1" as="geometry" />
        </mxCell>
        <mxCell id="fkgIZpiEhv-J8zdVLxft-4" value="direccion" style="ellipse;whiteSpace=wrap;html=1;align=center;fillColor=#f8cecc;strokeColor=#b85450;" vertex="1" parent="1">
          <mxGeometry x="100" y="230" width="100" height="40" as="geometry" />
        </mxCell>
        <mxCell id="fkgIZpiEhv-J8zdVLxft-10" style="edgeStyle=orthogonalEdgeStyle;rounded=0;orthogonalLoop=1;jettySize=auto;html=1;exitX=1;exitY=0.5;exitDx=0;exitDy=0;entryX=0;entryY=0.5;entryDx=0;entryDy=0;endArrow=baseDash;endFill=0;" edge="1" parent="1" source="fkgIZpiEhv-J8zdVLxft-5" target="fkgIZpiEhv-J8zdVLxft-1">
          <mxGeometry relative="1" as="geometry" />
        </mxCell>
        <mxCell id="fkgIZpiEhv-J8zdVLxft-5" value="telefono" style="ellipse;whiteSpace=wrap;html=1;align=center;fillColor=#f8cecc;strokeColor=#b85450;" vertex="1" parent="1">
          <mxGeometry x="100" y="300" width="100" height="40" as="geometry" />
        </mxCell>
        <mxCell id="fkgIZpiEhv-J8zdVLxft-11" style="edgeStyle=orthogonalEdgeStyle;rounded=0;orthogonalLoop=1;jettySize=auto;html=1;exitX=1;exitY=0.5;exitDx=0;exitDy=0;entryX=0;entryY=0.5;entryDx=0;entryDy=0;endArrow=baseDash;endFill=0;" edge="1" parent="1" source="fkgIZpiEhv-J8zdVLxft-6" target="fkgIZpiEhv-J8zdVLxft-1">
          <mxGeometry relative="1" as="geometry" />
        </mxCell>
        <mxCell id="fkgIZpiEhv-J8zdVLxft-6" value="email" style="ellipse;whiteSpace=wrap;html=1;align=center;fillColor=#f8cecc;strokeColor=#b85450;" vertex="1" parent="1">
          <mxGeometry x="100" y="370" width="100" height="40" as="geometry" />
        </mxCell>
        <mxCell id="fkgIZpiEhv-J8zdVLxft-14" style="edgeStyle=orthogonalEdgeStyle;rounded=0;orthogonalLoop=1;jettySize=auto;html=1;exitX=0;exitY=0.5;exitDx=0;exitDy=0;entryX=1;entryY=0.5;entryDx=0;entryDy=0;endArrow=ERmany;endFill=0;" edge="1" parent="1" source="fkgIZpiEhv-J8zdVLxft-12" target="fkgIZpiEhv-J8zdVLxft-1">
          <mxGeometry relative="1" as="geometry" />
        </mxCell>
        <mxCell id="fkgIZpiEhv-J8zdVLxft-18" style="edgeStyle=orthogonalEdgeStyle;rounded=0;orthogonalLoop=1;jettySize=auto;html=1;exitX=1;exitY=0.5;exitDx=0;exitDy=0;entryX=0;entryY=0.5;entryDx=0;entryDy=0;endArrow=baseDash;endFill=0;" edge="1" parent="1" source="fkgIZpiEhv-J8zdVLxft-12" target="fkgIZpiEhv-J8zdVLxft-17">
          <mxGeometry relative="1" as="geometry" />
        </mxCell>
        <mxCell id="fkgIZpiEhv-J8zdVLxft-12" value="necesita" style="shape=rhombus;perimeter=rhombusPerimeter;whiteSpace=wrap;html=1;align=center;" vertex="1" parent="1">
          <mxGeometry x="540" y="190" width="120" height="60" as="geometry" />
        </mxCell>
        <mxCell id="fkgIZpiEhv-J8zdVLxft-17" value="ventas" style="shape=ext;margin=3;double=1;whiteSpace=wrap;html=1;align=center;fillColor=#ffe6cc;strokeColor=#d79b00;" vertex="1" parent="1">
          <mxGeometry x="800" y="200" width="100" height="40" as="geometry" />
        </mxCell>
        <mxCell id="fkgIZpiEhv-J8zdVLxft-24" style="edgeStyle=orthogonalEdgeStyle;rounded=0;orthogonalLoop=1;jettySize=auto;html=1;exitX=0;exitY=0.5;exitDx=0;exitDy=0;entryX=1;entryY=0.5;entryDx=0;entryDy=0;endArrow=baseDash;endFill=0;" edge="1" parent="1" source="fkgIZpiEhv-J8zdVLxft-19" target="fkgIZpiEhv-J8zdVLxft-17">
          <mxGeometry relative="1" as="geometry" />
        </mxCell>
        <mxCell id="fkgIZpiEhv-J8zdVLxft-19" value="id_ventas" style="ellipse;whiteSpace=wrap;html=1;align=center;fontStyle=4;fillColor=#ffe6cc;strokeColor=#d79b00;" vertex="1" parent="1">
          <mxGeometry x="982" y="80" width="100" height="40" as="geometry" />
        </mxCell>
        <mxCell id="fkgIZpiEhv-J8zdVLxft-25" style="edgeStyle=orthogonalEdgeStyle;rounded=0;orthogonalLoop=1;jettySize=auto;html=1;exitX=0;exitY=0.5;exitDx=0;exitDy=0;entryX=1;entryY=0.5;entryDx=0;entryDy=0;endArrow=baseDash;endFill=0;" edge="1" parent="1" source="fkgIZpiEhv-J8zdVLxft-20" target="fkgIZpiEhv-J8zdVLxft-17">
          <mxGeometry relative="1" as="geometry" />
        </mxCell>
        <mxCell id="fkgIZpiEhv-J8zdVLxft-20" value="cliente" style="ellipse;whiteSpace=wrap;html=1;align=center;fillColor=#ffe6cc;strokeColor=#d79b00;" vertex="1" parent="1">
          <mxGeometry x="980" y="150" width="100" height="40" as="geometry" />
        </mxCell>
        <mxCell id="fkgIZpiEhv-J8zdVLxft-28" style="edgeStyle=orthogonalEdgeStyle;rounded=0;orthogonalLoop=1;jettySize=auto;html=1;exitX=0;exitY=0.5;exitDx=0;exitDy=0;endArrow=baseDash;endFill=0;" edge="1" parent="1" source="fkgIZpiEhv-J8zdVLxft-21">
          <mxGeometry relative="1" as="geometry">
            <mxPoint x="900" y="220" as="targetPoint" />
            <Array as="points">
              <mxPoint x="940" y="240" />
              <mxPoint x="940" y="221" />
            </Array>
          </mxGeometry>
        </mxCell>
        <mxCell id="fkgIZpiEhv-J8zdVLxft-21" value="producto" style="ellipse;whiteSpace=wrap;html=1;align=center;fillColor=#ffe6cc;strokeColor=#d79b00;" vertex="1" parent="1">
          <mxGeometry x="990" y="220" width="100" height="40" as="geometry" />
        </mxCell>
        <mxCell id="fkgIZpiEhv-J8zdVLxft-29" style="edgeStyle=orthogonalEdgeStyle;rounded=0;orthogonalLoop=1;jettySize=auto;html=1;exitX=0;exitY=0.5;exitDx=0;exitDy=0;entryX=1;entryY=0.5;entryDx=0;entryDy=0;endArrow=baseDash;endFill=0;" edge="1" parent="1" source="fkgIZpiEhv-J8zdVLxft-22" target="fkgIZpiEhv-J8zdVLxft-17">
          <mxGeometry relative="1" as="geometry">
            <Array as="points">
              <mxPoint x="940" y="310" />
              <mxPoint x="940" y="220" />
            </Array>
          </mxGeometry>
        </mxCell>
        <mxCell id="fkgIZpiEhv-J8zdVLxft-22" value="vendedor" style="ellipse;whiteSpace=wrap;html=1;align=center;fillColor=#ffe6cc;strokeColor=#d79b00;" vertex="1" parent="1">
          <mxGeometry x="990" y="290" width="100" height="40" as="geometry" />
        </mxCell>
        <mxCell id="fkgIZpiEhv-J8zdVLxft-30" style="edgeStyle=orthogonalEdgeStyle;rounded=0;orthogonalLoop=1;jettySize=auto;html=1;exitX=0;exitY=0.5;exitDx=0;exitDy=0;entryX=1;entryY=0.5;entryDx=0;entryDy=0;endArrow=baseDash;endFill=0;" edge="1" parent="1" source="fkgIZpiEhv-J8zdVLxft-23" target="fkgIZpiEhv-J8zdVLxft-17">
          <mxGeometry relative="1" as="geometry">
            <Array as="points">
              <mxPoint x="940" y="380" />
              <mxPoint x="940" y="220" />
            </Array>
          </mxGeometry>
        </mxCell>
        <mxCell id="fkgIZpiEhv-J8zdVLxft-23" value="folio" style="ellipse;whiteSpace=wrap;html=1;align=center;fillColor=#ffe6cc;strokeColor=#d79b00;" vertex="1" parent="1">
          <mxGeometry x="990" y="360" width="100" height="40" as="geometry" />
        </mxCell>
        <mxCell id="fkgIZpiEhv-J8zdVLxft-32" style="edgeStyle=orthogonalEdgeStyle;rounded=0;orthogonalLoop=1;jettySize=auto;html=1;exitX=0.5;exitY=0;exitDx=0;exitDy=0;entryX=0.5;entryY=1;entryDx=0;entryDy=0;endArrow=baseDash;endFill=0;" edge="1" parent="1" source="fkgIZpiEhv-J8zdVLxft-31" target="fkgIZpiEhv-J8zdVLxft-17">
          <mxGeometry relative="1" as="geometry" />
        </mxCell>
        <mxCell id="fkgIZpiEhv-J8zdVLxft-34" style="edgeStyle=orthogonalEdgeStyle;rounded=0;orthogonalLoop=1;jettySize=auto;html=1;exitX=0.5;exitY=1;exitDx=0;exitDy=0;entryX=0.5;entryY=0;entryDx=0;entryDy=0;endArrow=baseDash;endFill=0;" edge="1" parent="1" source="fkgIZpiEhv-J8zdVLxft-31" target="fkgIZpiEhv-J8zdVLxft-33">
          <mxGeometry relative="1" as="geometry" />
        </mxCell>
        <mxCell id="fkgIZpiEhv-J8zdVLxft-31" value="necesita" style="shape=rhombus;perimeter=rhombusPerimeter;whiteSpace=wrap;html=1;align=center;" vertex="1" parent="1">
          <mxGeometry x="790" y="490" width="120" height="60" as="geometry" />
        </mxCell>
        <mxCell id="fkgIZpiEhv-J8zdVLxft-33" value="cliente" style="rounded=1;arcSize=10;whiteSpace=wrap;html=1;align=center;fillColor=#1ba1e2;fontColor=#ffffff;strokeColor=#006EAF;" vertex="1" parent="1">
          <mxGeometry x="800" y="660" width="100" height="40" as="geometry" />
        </mxCell>
        <mxCell id="fkgIZpiEhv-J8zdVLxft-40" style="edgeStyle=orthogonalEdgeStyle;rounded=0;orthogonalLoop=1;jettySize=auto;html=1;exitX=1;exitY=0.5;exitDx=0;exitDy=0;entryX=0;entryY=0.5;entryDx=0;entryDy=0;endArrow=baseDash;endFill=0;" edge="1" parent="1" source="fkgIZpiEhv-J8zdVLxft-35" target="fkgIZpiEhv-J8zdVLxft-33">
          <mxGeometry relative="1" as="geometry" />
        </mxCell>
        <mxCell id="fkgIZpiEhv-J8zdVLxft-35" value="id_cliente" style="ellipse;whiteSpace=wrap;html=1;align=center;fontStyle=4;fillColor=#1ba1e2;fontColor=#ffffff;strokeColor=#006EAF;" vertex="1" parent="1">
          <mxGeometry x="570" y="565" width="100" height="40" as="geometry" />
        </mxCell>
        <mxCell id="fkgIZpiEhv-J8zdVLxft-41" style="edgeStyle=orthogonalEdgeStyle;rounded=0;orthogonalLoop=1;jettySize=auto;html=1;exitX=1;exitY=0.5;exitDx=0;exitDy=0;entryX=0;entryY=0.5;entryDx=0;entryDy=0;endArrow=baseDash;endFill=0;" edge="1" parent="1" source="fkgIZpiEhv-J8zdVLxft-36" target="fkgIZpiEhv-J8zdVLxft-33">
          <mxGeometry relative="1" as="geometry" />
        </mxCell>
        <mxCell id="fkgIZpiEhv-J8zdVLxft-36" value="nombre" style="ellipse;whiteSpace=wrap;html=1;align=center;fillColor=#1ba1e2;fontColor=#ffffff;strokeColor=#006EAF;" vertex="1" parent="1">
          <mxGeometry x="570" y="640" width="100" height="40" as="geometry" />
        </mxCell>
        <mxCell id="fkgIZpiEhv-J8zdVLxft-44" style="edgeStyle=orthogonalEdgeStyle;rounded=0;orthogonalLoop=1;jettySize=auto;html=1;exitX=1;exitY=0.5;exitDx=0;exitDy=0;entryX=0;entryY=0.5;entryDx=0;entryDy=0;endArrow=baseDash;endFill=0;" edge="1" parent="1" source="fkgIZpiEhv-J8zdVLxft-37" target="fkgIZpiEhv-J8zdVLxft-33">
          <mxGeometry relative="1" as="geometry" />
        </mxCell>
        <mxCell id="fkgIZpiEhv-J8zdVLxft-37" value="email" style="ellipse;whiteSpace=wrap;html=1;align=center;fillColor=#1ba1e2;fontColor=#ffffff;strokeColor=#006EAF;" vertex="1" parent="1">
          <mxGeometry x="570" y="820" width="100" height="40" as="geometry" />
        </mxCell>
        <mxCell id="fkgIZpiEhv-J8zdVLxft-42" style="edgeStyle=orthogonalEdgeStyle;rounded=0;orthogonalLoop=1;jettySize=auto;html=1;exitX=1;exitY=0.5;exitDx=0;exitDy=0;entryX=0;entryY=0.5;entryDx=0;entryDy=0;endArrow=baseDash;endFill=0;" edge="1" parent="1" source="fkgIZpiEhv-J8zdVLxft-38" target="fkgIZpiEhv-J8zdVLxft-33">
          <mxGeometry relative="1" as="geometry" />
        </mxCell>
        <mxCell id="fkgIZpiEhv-J8zdVLxft-38" value="direccion" style="ellipse;whiteSpace=wrap;html=1;align=center;fillColor=#1ba1e2;fontColor=#ffffff;strokeColor=#006EAF;" vertex="1" parent="1">
          <mxGeometry x="570" y="700" width="100" height="40" as="geometry" />
        </mxCell>
        <mxCell id="fkgIZpiEhv-J8zdVLxft-43" style="edgeStyle=orthogonalEdgeStyle;rounded=0;orthogonalLoop=1;jettySize=auto;html=1;exitX=1;exitY=0.5;exitDx=0;exitDy=0;entryX=0;entryY=0.5;entryDx=0;entryDy=0;endArrow=baseDash;endFill=0;" edge="1" parent="1" source="fkgIZpiEhv-J8zdVLxft-39" target="fkgIZpiEhv-J8zdVLxft-33">
          <mxGeometry relative="1" as="geometry" />
        </mxCell>
        <mxCell id="fkgIZpiEhv-J8zdVLxft-39" value="telefono" style="ellipse;whiteSpace=wrap;html=1;align=center;fillColor=#1ba1e2;fontColor=#ffffff;strokeColor=#006EAF;" vertex="1" parent="1">
          <mxGeometry x="570" y="760" width="100" height="40" as="geometry" />
        </mxCell>
      </root>
    </mxGraphModel>
  </diagram>
  <diagram id="YaiP3eZel3sJOZt64jb6" name="m er hospital">
    <mxGraphModel dx="880" dy="426" grid="1" gridSize="10" guides="1" tooltips="1" connect="1" arrows="1" fold="1" page="1" pageScale="1" pageWidth="827" pageHeight="1169" math="0" shadow="0">
      <root>
        <mxCell id="0" />
        <mxCell id="1" parent="0" />
        <mxCell id="C_8fDJJAIGNW68RHOujG-18" style="edgeStyle=orthogonalEdgeStyle;rounded=0;orthogonalLoop=1;jettySize=auto;html=1;exitX=1;exitY=0.5;exitDx=0;exitDy=0;endArrow=ERone;endFill=0;" edge="1" parent="1" source="C_8fDJJAIGNW68RHOujG-1">
          <mxGeometry relative="1" as="geometry">
            <mxPoint x="470" y="220" as="targetPoint" />
          </mxGeometry>
        </mxCell>
        <mxCell id="C_8fDJJAIGNW68RHOujG-1" value="paciente&amp;nbsp;" style="rounded=1;arcSize=10;whiteSpace=wrap;html=1;align=center;fillColor=#76608a;fontColor=#ffffff;strokeColor=#432D57;" vertex="1" parent="1">
          <mxGeometry x="200" y="200" width="100" height="40" as="geometry" />
        </mxCell>
        <mxCell id="C_8fDJJAIGNW68RHOujG-8" style="edgeStyle=orthogonalEdgeStyle;rounded=0;orthogonalLoop=1;jettySize=auto;html=1;exitX=1;exitY=0.5;exitDx=0;exitDy=0;entryX=0;entryY=0.5;entryDx=0;entryDy=0;endArrow=baseDash;endFill=0;" edge="1" parent="1" source="C_8fDJJAIGNW68RHOujG-2" target="C_8fDJJAIGNW68RHOujG-1">
          <mxGeometry relative="1" as="geometry" />
        </mxCell>
        <mxCell id="C_8fDJJAIGNW68RHOujG-2" value="id_paciente" style="ellipse;whiteSpace=wrap;html=1;align=center;fontStyle=4;fillColor=#76608a;fontColor=#ffffff;strokeColor=#432D57;" vertex="1" parent="1">
          <mxGeometry x="40" y="90" width="100" height="40" as="geometry" />
        </mxCell>
        <mxCell id="C_8fDJJAIGNW68RHOujG-9" style="edgeStyle=orthogonalEdgeStyle;rounded=0;orthogonalLoop=1;jettySize=auto;html=1;exitX=1;exitY=0.5;exitDx=0;exitDy=0;entryX=0;entryY=0.5;entryDx=0;entryDy=0;endArrow=baseDash;endFill=0;" edge="1" parent="1" source="C_8fDJJAIGNW68RHOujG-3" target="C_8fDJJAIGNW68RHOujG-1">
          <mxGeometry relative="1" as="geometry" />
        </mxCell>
        <mxCell id="C_8fDJJAIGNW68RHOujG-3" value="nombre" style="ellipse;whiteSpace=wrap;html=1;align=center;fillColor=#76608a;fontColor=#ffffff;strokeColor=#432D57;" vertex="1" parent="1">
          <mxGeometry x="40" y="150" width="100" height="40" as="geometry" />
        </mxCell>
        <mxCell id="C_8fDJJAIGNW68RHOujG-10" style="edgeStyle=orthogonalEdgeStyle;rounded=0;orthogonalLoop=1;jettySize=auto;html=1;exitX=1;exitY=0.5;exitDx=0;exitDy=0;entryX=0;entryY=0.5;entryDx=0;entryDy=0;endArrow=baseDash;endFill=0;" edge="1" parent="1" source="C_8fDJJAIGNW68RHOujG-4" target="C_8fDJJAIGNW68RHOujG-1">
          <mxGeometry relative="1" as="geometry" />
        </mxCell>
        <mxCell id="C_8fDJJAIGNW68RHOujG-4" value="cliente" style="ellipse;whiteSpace=wrap;html=1;align=center;fillColor=#76608a;fontColor=#ffffff;strokeColor=#432D57;" vertex="1" parent="1">
          <mxGeometry x="40" y="210" width="100" height="40" as="geometry" />
        </mxCell>
        <mxCell id="C_8fDJJAIGNW68RHOujG-11" style="edgeStyle=orthogonalEdgeStyle;rounded=0;orthogonalLoop=1;jettySize=auto;html=1;exitX=1;exitY=0.5;exitDx=0;exitDy=0;entryX=0;entryY=0.5;entryDx=0;entryDy=0;endArrow=baseDash;endFill=0;" edge="1" parent="1" source="C_8fDJJAIGNW68RHOujG-5" target="C_8fDJJAIGNW68RHOujG-1">
          <mxGeometry relative="1" as="geometry" />
        </mxCell>
        <mxCell id="C_8fDJJAIGNW68RHOujG-5" value="historial medico" style="ellipse;whiteSpace=wrap;html=1;align=center;fillColor=#76608a;fontColor=#ffffff;strokeColor=#432D57;" vertex="1" parent="1">
          <mxGeometry x="40" y="270" width="100" height="40" as="geometry" />
        </mxCell>
        <mxCell id="C_8fDJJAIGNW68RHOujG-13" style="edgeStyle=orthogonalEdgeStyle;rounded=0;orthogonalLoop=1;jettySize=auto;html=1;exitX=1;exitY=0.5;exitDx=0;exitDy=0;entryX=0;entryY=0.5;entryDx=0;entryDy=0;endArrow=baseDash;endFill=0;" edge="1" parent="1" source="C_8fDJJAIGNW68RHOujG-6" target="C_8fDJJAIGNW68RHOujG-1">
          <mxGeometry relative="1" as="geometry" />
        </mxCell>
        <mxCell id="C_8fDJJAIGNW68RHOujG-6" value="fecha" style="ellipse;whiteSpace=wrap;html=1;align=center;fillColor=#76608a;fontColor=#ffffff;strokeColor=#432D57;" vertex="1" parent="1">
          <mxGeometry x="40" y="330" width="100" height="40" as="geometry" />
        </mxCell>
        <mxCell id="C_8fDJJAIGNW68RHOujG-16" style="edgeStyle=orthogonalEdgeStyle;rounded=0;orthogonalLoop=1;jettySize=auto;html=1;exitX=0;exitY=0.5;exitDx=0;exitDy=0;entryX=1;entryY=0.5;entryDx=0;entryDy=0;endArrow=ERmany;endFill=0;" edge="1" parent="1" source="C_8fDJJAIGNW68RHOujG-14" target="C_8fDJJAIGNW68RHOujG-1">
          <mxGeometry relative="1" as="geometry" />
        </mxCell>
        <mxCell id="C_8fDJJAIGNW68RHOujG-20" style="edgeStyle=orthogonalEdgeStyle;rounded=0;orthogonalLoop=1;jettySize=auto;html=1;exitX=1;exitY=0.5;exitDx=0;exitDy=0;entryX=0;entryY=0.5;entryDx=0;entryDy=0;endArrow=baseDash;endFill=0;" edge="1" parent="1" source="C_8fDJJAIGNW68RHOujG-14" target="C_8fDJJAIGNW68RHOujG-19">
          <mxGeometry relative="1" as="geometry" />
        </mxCell>
        <mxCell id="C_8fDJJAIGNW68RHOujG-14" value="n_ficha" style="shape=rhombus;perimeter=rhombusPerimeter;whiteSpace=wrap;html=1;align=center;" vertex="1" parent="1">
          <mxGeometry x="470" y="190" width="120" height="60" as="geometry" />
        </mxCell>
        <mxCell id="C_8fDJJAIGNW68RHOujG-19" value="consultorio&amp;nbsp;" style="rounded=1;arcSize=10;whiteSpace=wrap;html=1;align=center;fillColor=#b1ddf0;strokeColor=#10739e;" vertex="1" parent="1">
          <mxGeometry x="770" y="200" width="100" height="40" as="geometry" />
        </mxCell>
        <mxCell id="C_8fDJJAIGNW68RHOujG-25" style="edgeStyle=orthogonalEdgeStyle;rounded=0;orthogonalLoop=1;jettySize=auto;html=1;exitX=0;exitY=0.5;exitDx=0;exitDy=0;entryX=1;entryY=0.5;entryDx=0;entryDy=0;endArrow=baseDash;endFill=0;" edge="1" parent="1" source="C_8fDJJAIGNW68RHOujG-21" target="C_8fDJJAIGNW68RHOujG-19">
          <mxGeometry relative="1" as="geometry" />
        </mxCell>
        <mxCell id="C_8fDJJAIGNW68RHOujG-21" value="id_consultorio" style="ellipse;whiteSpace=wrap;html=1;align=center;fontStyle=4;fillColor=#b1ddf0;strokeColor=#10739e;" vertex="1" parent="1">
          <mxGeometry x="1000" y="60" width="100" height="40" as="geometry" />
        </mxCell>
        <mxCell id="C_8fDJJAIGNW68RHOujG-26" style="edgeStyle=orthogonalEdgeStyle;rounded=0;orthogonalLoop=1;jettySize=auto;html=1;exitX=0;exitY=0.5;exitDx=0;exitDy=0;entryX=1;entryY=0.5;entryDx=0;entryDy=0;endArrow=baseDash;endFill=0;" edge="1" parent="1" source="C_8fDJJAIGNW68RHOujG-22" target="C_8fDJJAIGNW68RHOujG-19">
          <mxGeometry relative="1" as="geometry" />
        </mxCell>
        <mxCell id="C_8fDJJAIGNW68RHOujG-22" value="nombre" style="ellipse;whiteSpace=wrap;html=1;align=center;fillColor=#b1ddf0;strokeColor=#10739e;" vertex="1" parent="1">
          <mxGeometry x="1000" y="120" width="100" height="40" as="geometry" />
        </mxCell>
        <mxCell id="C_8fDJJAIGNW68RHOujG-27" style="edgeStyle=orthogonalEdgeStyle;rounded=0;orthogonalLoop=1;jettySize=auto;html=1;exitX=0;exitY=0.5;exitDx=0;exitDy=0;entryX=1;entryY=0.5;entryDx=0;entryDy=0;endArrow=baseDash;endFill=0;" edge="1" parent="1" source="C_8fDJJAIGNW68RHOujG-23" target="C_8fDJJAIGNW68RHOujG-19">
          <mxGeometry relative="1" as="geometry">
            <Array as="points">
              <mxPoint x="1010" y="220" />
            </Array>
          </mxGeometry>
        </mxCell>
        <mxCell id="C_8fDJJAIGNW68RHOujG-23" value="direccion" style="ellipse;whiteSpace=wrap;html=1;align=center;fillColor=#b1ddf0;strokeColor=#10739e;" vertex="1" parent="1">
          <mxGeometry x="1010" y="190" width="100" height="40" as="geometry" />
        </mxCell>
        <mxCell id="C_8fDJJAIGNW68RHOujG-28" style="edgeStyle=orthogonalEdgeStyle;rounded=0;orthogonalLoop=1;jettySize=auto;html=1;exitX=0;exitY=0.5;exitDx=0;exitDy=0;entryX=1;entryY=0.5;entryDx=0;entryDy=0;endArrow=baseDash;endFill=0;" edge="1" parent="1" source="C_8fDJJAIGNW68RHOujG-24" target="C_8fDJJAIGNW68RHOujG-19">
          <mxGeometry relative="1" as="geometry">
            <Array as="points">
              <mxPoint x="930" y="280" />
              <mxPoint x="930" y="220" />
            </Array>
          </mxGeometry>
        </mxCell>
        <mxCell id="C_8fDJJAIGNW68RHOujG-24" value="doctor&amp;nbsp;" style="ellipse;whiteSpace=wrap;html=1;align=center;fillColor=#b1ddf0;strokeColor=#10739e;" vertex="1" parent="1">
          <mxGeometry x="1010" y="260" width="100" height="40" as="geometry" />
        </mxCell>
        <mxCell id="C_8fDJJAIGNW68RHOujG-33" style="edgeStyle=orthogonalEdgeStyle;rounded=0;orthogonalLoop=1;jettySize=auto;html=1;exitX=0.5;exitY=1;exitDx=0;exitDy=0;entryX=0.5;entryY=0;entryDx=0;entryDy=0;endArrow=baseDash;endFill=0;" edge="1" parent="1" source="C_8fDJJAIGNW68RHOujG-29" target="C_8fDJJAIGNW68RHOujG-32">
          <mxGeometry relative="1" as="geometry" />
        </mxCell>
        <mxCell id="C_8fDJJAIGNW68RHOujG-29" value="hacen" style="shape=rhombus;perimeter=rhombusPerimeter;whiteSpace=wrap;html=1;align=center;" vertex="1" parent="1">
          <mxGeometry x="770" y="390" width="120" height="80" as="geometry" />
        </mxCell>
        <mxCell id="C_8fDJJAIGNW68RHOujG-31" style="edgeStyle=orthogonalEdgeStyle;rounded=0;orthogonalLoop=1;jettySize=auto;html=1;exitX=0.5;exitY=0;exitDx=0;exitDy=0;entryX=0.6;entryY=1.025;entryDx=0;entryDy=0;entryPerimeter=0;endArrow=baseDash;endFill=0;" edge="1" parent="1" source="C_8fDJJAIGNW68RHOujG-29" target="C_8fDJJAIGNW68RHOujG-19">
          <mxGeometry relative="1" as="geometry" />
        </mxCell>
        <mxCell id="C_8fDJJAIGNW68RHOujG-32" value="analisis" style="rounded=1;arcSize=10;whiteSpace=wrap;html=1;align=center;fillColor=#d5e8d4;strokeColor=#82b366;" vertex="1" parent="1">
          <mxGeometry x="780" y="600" width="100" height="40" as="geometry" />
        </mxCell>
        <mxCell id="C_8fDJJAIGNW68RHOujG-38" style="edgeStyle=orthogonalEdgeStyle;rounded=0;orthogonalLoop=1;jettySize=auto;html=1;exitX=0;exitY=0.5;exitDx=0;exitDy=0;entryX=1;entryY=0.5;entryDx=0;entryDy=0;endArrow=baseDash;endFill=0;" edge="1" parent="1" source="C_8fDJJAIGNW68RHOujG-34" target="C_8fDJJAIGNW68RHOujG-32">
          <mxGeometry relative="1" as="geometry" />
        </mxCell>
        <mxCell id="C_8fDJJAIGNW68RHOujG-34" value="id_analisis" style="ellipse;whiteSpace=wrap;html=1;align=center;fontStyle=4;fillColor=#d5e8d4;strokeColor=#82b366;" vertex="1" parent="1">
          <mxGeometry x="1010" y="480" width="100" height="40" as="geometry" />
        </mxCell>
        <mxCell id="C_8fDJJAIGNW68RHOujG-39" style="edgeStyle=orthogonalEdgeStyle;rounded=0;orthogonalLoop=1;jettySize=auto;html=1;exitX=0;exitY=0.5;exitDx=0;exitDy=0;entryX=1;entryY=0.5;entryDx=0;entryDy=0;endArrow=baseDash;endFill=0;" edge="1" parent="1" source="C_8fDJJAIGNW68RHOujG-35" target="C_8fDJJAIGNW68RHOujG-32">
          <mxGeometry relative="1" as="geometry" />
        </mxCell>
        <mxCell id="C_8fDJJAIGNW68RHOujG-35" value="nombre" style="ellipse;whiteSpace=wrap;html=1;align=center;fillColor=#d5e8d4;strokeColor=#82b366;" vertex="1" parent="1">
          <mxGeometry x="1010" y="550" width="100" height="40" as="geometry" />
        </mxCell>
        <mxCell id="C_8fDJJAIGNW68RHOujG-40" style="edgeStyle=orthogonalEdgeStyle;rounded=0;orthogonalLoop=1;jettySize=auto;html=1;exitX=0;exitY=0.5;exitDx=0;exitDy=0;entryX=1;entryY=0.5;entryDx=0;entryDy=0;endArrow=baseDash;endFill=0;" edge="1" parent="1" source="C_8fDJJAIGNW68RHOujG-36" target="C_8fDJJAIGNW68RHOujG-32">
          <mxGeometry relative="1" as="geometry" />
        </mxCell>
        <mxCell id="C_8fDJJAIGNW68RHOujG-36" value="receta medica" style="ellipse;whiteSpace=wrap;html=1;align=center;fillColor=#d5e8d4;strokeColor=#82b366;" vertex="1" parent="1">
          <mxGeometry x="1010" y="620" width="100" height="40" as="geometry" />
        </mxCell>
        <mxCell id="C_8fDJJAIGNW68RHOujG-41" style="edgeStyle=orthogonalEdgeStyle;rounded=0;orthogonalLoop=1;jettySize=auto;html=1;exitX=0;exitY=0.5;exitDx=0;exitDy=0;entryX=1;entryY=0.5;entryDx=0;entryDy=0;endArrow=baseDash;endFill=0;" edge="1" parent="1" source="C_8fDJJAIGNW68RHOujG-37" target="C_8fDJJAIGNW68RHOujG-32">
          <mxGeometry relative="1" as="geometry" />
        </mxCell>
        <mxCell id="C_8fDJJAIGNW68RHOujG-37" value="resultado" style="ellipse;whiteSpace=wrap;html=1;align=center;fillColor=#d5e8d4;strokeColor=#82b366;" vertex="1" parent="1">
          <mxGeometry x="1010" y="690" width="100" height="40" as="geometry" />
        </mxCell>
      </root>
    </mxGraphModel>
  </diagram>
  <diagram id="aiepRIynxUZzlzN-qhXB" name="m er biblioteca">
    <mxGraphModel dx="880" dy="426" grid="1" gridSize="10" guides="1" tooltips="1" connect="1" arrows="1" fold="1" page="1" pageScale="1" pageWidth="827" pageHeight="1169" math="0" shadow="0">
      <root>
        <mxCell id="0" />
        <mxCell id="1" parent="0" />
        <mxCell id="mBw2t3PFjm9JTGkNkOU8-1" value="autor" style="rounded=1;arcSize=10;whiteSpace=wrap;html=1;align=center;fillColor=#e1d5e7;strokeColor=#9673a6;" vertex="1" parent="1">
          <mxGeometry x="270" y="190" width="100" height="40" as="geometry" />
        </mxCell>
        <mxCell id="mBw2t3PFjm9JTGkNkOU8-6" style="edgeStyle=orthogonalEdgeStyle;rounded=0;orthogonalLoop=1;jettySize=auto;html=1;exitX=1;exitY=0.5;exitDx=0;exitDy=0;entryX=0;entryY=0.5;entryDx=0;entryDy=0;endArrow=baseDash;endFill=0;" edge="1" parent="1" source="mBw2t3PFjm9JTGkNkOU8-2" target="mBw2t3PFjm9JTGkNkOU8-1">
          <mxGeometry relative="1" as="geometry" />
        </mxCell>
        <mxCell id="mBw2t3PFjm9JTGkNkOU8-2" value="id_autor" style="ellipse;whiteSpace=wrap;html=1;align=center;fontStyle=4;fillColor=#e1d5e7;strokeColor=#9673a6;" vertex="1" parent="1">
          <mxGeometry x="60" y="90" width="100" height="40" as="geometry" />
        </mxCell>
        <mxCell id="mBw2t3PFjm9JTGkNkOU8-7" style="edgeStyle=orthogonalEdgeStyle;rounded=0;orthogonalLoop=1;jettySize=auto;html=1;exitX=1;exitY=0.5;exitDx=0;exitDy=0;entryX=0;entryY=0.5;entryDx=0;entryDy=0;endArrow=baseDash;endFill=0;" edge="1" parent="1" source="mBw2t3PFjm9JTGkNkOU8-3" target="mBw2t3PFjm9JTGkNkOU8-1">
          <mxGeometry relative="1" as="geometry" />
        </mxCell>
        <mxCell id="mBw2t3PFjm9JTGkNkOU8-3" value="nombre" style="ellipse;whiteSpace=wrap;html=1;align=center;fillColor=#e1d5e7;strokeColor=#9673a6;" vertex="1" parent="1">
          <mxGeometry x="60" y="160" width="100" height="40" as="geometry" />
        </mxCell>
        <mxCell id="mBw2t3PFjm9JTGkNkOU8-9" style="edgeStyle=orthogonalEdgeStyle;rounded=0;orthogonalLoop=1;jettySize=auto;html=1;exitX=1;exitY=0.5;exitDx=0;exitDy=0;entryX=0;entryY=0.5;entryDx=0;entryDy=0;endArrow=baseDash;endFill=0;" edge="1" parent="1" source="mBw2t3PFjm9JTGkNkOU8-4" target="mBw2t3PFjm9JTGkNkOU8-1">
          <mxGeometry relative="1" as="geometry">
            <Array as="points">
              <mxPoint x="210" y="340" />
              <mxPoint x="210" y="210" />
            </Array>
          </mxGeometry>
        </mxCell>
        <mxCell id="mBw2t3PFjm9JTGkNkOU8-4" value="folio" style="ellipse;whiteSpace=wrap;html=1;align=center;fillColor=#e1d5e7;strokeColor=#9673a6;" vertex="1" parent="1">
          <mxGeometry x="70" y="320" width="100" height="40" as="geometry" />
        </mxCell>
        <mxCell id="mBw2t3PFjm9JTGkNkOU8-8" style="edgeStyle=orthogonalEdgeStyle;rounded=0;orthogonalLoop=1;jettySize=auto;html=1;exitX=1;exitY=0.5;exitDx=0;exitDy=0;entryX=0;entryY=0.5;entryDx=0;entryDy=0;endArrow=baseDash;endFill=0;" edge="1" parent="1" source="mBw2t3PFjm9JTGkNkOU8-5" target="mBw2t3PFjm9JTGkNkOU8-1">
          <mxGeometry relative="1" as="geometry">
            <Array as="points">
              <mxPoint x="210" y="260" />
              <mxPoint x="210" y="210" />
            </Array>
          </mxGeometry>
        </mxCell>
        <mxCell id="mBw2t3PFjm9JTGkNkOU8-5" value="libro" style="ellipse;whiteSpace=wrap;html=1;align=center;fillColor=#e1d5e7;strokeColor=#9673a6;" vertex="1" parent="1">
          <mxGeometry x="70" y="240" width="100" height="40" as="geometry" />
        </mxCell>
        <mxCell id="mBw2t3PFjm9JTGkNkOU8-14" style="edgeStyle=orthogonalEdgeStyle;rounded=0;orthogonalLoop=1;jettySize=auto;html=1;exitX=0;exitY=0.5;exitDx=0;exitDy=0;entryX=1;entryY=0.5;entryDx=0;entryDy=0;endArrow=baseDash;endFill=0;" edge="1" parent="1" source="mBw2t3PFjm9JTGkNkOU8-12" target="mBw2t3PFjm9JTGkNkOU8-1">
          <mxGeometry relative="1" as="geometry" />
        </mxCell>
        <mxCell id="mBw2t3PFjm9JTGkNkOU8-16" style="edgeStyle=orthogonalEdgeStyle;rounded=0;orthogonalLoop=1;jettySize=auto;html=1;exitX=1;exitY=0.5;exitDx=0;exitDy=0;entryX=0;entryY=0.5;entryDx=0;entryDy=0;endArrow=baseDash;endFill=0;" edge="1" parent="1" source="mBw2t3PFjm9JTGkNkOU8-12" target="mBw2t3PFjm9JTGkNkOU8-15">
          <mxGeometry relative="1" as="geometry" />
        </mxCell>
        <mxCell id="mBw2t3PFjm9JTGkNkOU8-12" value="escribe" style="shape=rhombus;perimeter=rhombusPerimeter;whiteSpace=wrap;html=1;align=center;" vertex="1" parent="1">
          <mxGeometry x="550" y="180" width="120" height="60" as="geometry" />
        </mxCell>
        <mxCell id="mBw2t3PFjm9JTGkNkOU8-15" value="libro" style="rounded=1;arcSize=10;whiteSpace=wrap;html=1;align=center;fillColor=#dae8fc;strokeColor=#6c8ebf;" vertex="1" parent="1">
          <mxGeometry x="860" y="190" width="100" height="40" as="geometry" />
        </mxCell>
        <mxCell id="mBw2t3PFjm9JTGkNkOU8-23" style="edgeStyle=orthogonalEdgeStyle;rounded=0;orthogonalLoop=1;jettySize=auto;html=1;exitX=0;exitY=0.5;exitDx=0;exitDy=0;entryX=1;entryY=0.5;entryDx=0;entryDy=0;endArrow=baseDash;endFill=0;" edge="1" parent="1" source="mBw2t3PFjm9JTGkNkOU8-17" target="mBw2t3PFjm9JTGkNkOU8-15">
          <mxGeometry relative="1" as="geometry">
            <Array as="points">
              <mxPoint x="1000" y="70" />
              <mxPoint x="1000" y="210" />
            </Array>
          </mxGeometry>
        </mxCell>
        <mxCell id="mBw2t3PFjm9JTGkNkOU8-17" value="id_libro" style="ellipse;whiteSpace=wrap;html=1;align=center;fontStyle=4;fillColor=#dae8fc;strokeColor=#6c8ebf;" vertex="1" parent="1">
          <mxGeometry x="1030" y="50" width="100" height="40" as="geometry" />
        </mxCell>
        <mxCell id="mBw2t3PFjm9JTGkNkOU8-25" style="edgeStyle=orthogonalEdgeStyle;rounded=0;orthogonalLoop=1;jettySize=auto;html=1;exitX=0;exitY=0.5;exitDx=0;exitDy=0;entryX=1;entryY=0.5;entryDx=0;entryDy=0;endArrow=baseDash;endFill=0;" edge="1" parent="1" source="mBw2t3PFjm9JTGkNkOU8-19" target="mBw2t3PFjm9JTGkNkOU8-15">
          <mxGeometry relative="1" as="geometry" />
        </mxCell>
        <mxCell id="mBw2t3PFjm9JTGkNkOU8-19" value="titulo" style="ellipse;whiteSpace=wrap;html=1;align=center;fillColor=#dae8fc;strokeColor=#6c8ebf;" vertex="1" parent="1">
          <mxGeometry x="1040" y="120" width="100" height="40" as="geometry" />
        </mxCell>
        <mxCell id="mBw2t3PFjm9JTGkNkOU8-26" style="edgeStyle=orthogonalEdgeStyle;rounded=0;orthogonalLoop=1;jettySize=auto;html=1;exitX=0;exitY=0.5;exitDx=0;exitDy=0;entryX=1;entryY=0.5;entryDx=0;entryDy=0;endArrow=baseDash;endFill=0;" edge="1" parent="1" source="mBw2t3PFjm9JTGkNkOU8-20" target="mBw2t3PFjm9JTGkNkOU8-15">
          <mxGeometry relative="1" as="geometry" />
        </mxCell>
        <mxCell id="mBw2t3PFjm9JTGkNkOU8-20" value="paginas" style="ellipse;whiteSpace=wrap;html=1;align=center;fillColor=#dae8fc;strokeColor=#6c8ebf;" vertex="1" parent="1">
          <mxGeometry x="1040" y="180" width="100" height="40" as="geometry" />
        </mxCell>
        <mxCell id="mBw2t3PFjm9JTGkNkOU8-27" style="edgeStyle=orthogonalEdgeStyle;rounded=0;orthogonalLoop=1;jettySize=auto;html=1;exitX=0;exitY=0.5;exitDx=0;exitDy=0;entryX=1;entryY=0.5;entryDx=0;entryDy=0;endArrow=baseDash;endFill=0;" edge="1" parent="1" source="mBw2t3PFjm9JTGkNkOU8-21" target="mBw2t3PFjm9JTGkNkOU8-15">
          <mxGeometry relative="1" as="geometry">
            <Array as="points">
              <mxPoint x="1000" y="270" />
              <mxPoint x="1000" y="210" />
            </Array>
          </mxGeometry>
        </mxCell>
        <mxCell id="mBw2t3PFjm9JTGkNkOU8-21" value="folio" style="ellipse;whiteSpace=wrap;html=1;align=center;fillColor=#dae8fc;strokeColor=#6c8ebf;" vertex="1" parent="1">
          <mxGeometry x="1050" y="250" width="100" height="40" as="geometry" />
        </mxCell>
        <mxCell id="mBw2t3PFjm9JTGkNkOU8-28" style="edgeStyle=orthogonalEdgeStyle;rounded=0;orthogonalLoop=1;jettySize=auto;html=1;exitX=0;exitY=0.5;exitDx=0;exitDy=0;entryX=1;entryY=0.5;entryDx=0;entryDy=0;endArrow=baseDash;endFill=0;" edge="1" parent="1" source="mBw2t3PFjm9JTGkNkOU8-22" target="mBw2t3PFjm9JTGkNkOU8-15">
          <mxGeometry relative="1" as="geometry">
            <Array as="points">
              <mxPoint x="1000" y="340" />
              <mxPoint x="1000" y="210" />
            </Array>
          </mxGeometry>
        </mxCell>
        <mxCell id="mBw2t3PFjm9JTGkNkOU8-22" value="editorial" style="ellipse;whiteSpace=wrap;html=1;align=center;fillColor=#dae8fc;strokeColor=#6c8ebf;" vertex="1" parent="1">
          <mxGeometry x="1050" y="320" width="100" height="40" as="geometry" />
        </mxCell>
        <mxCell id="mBw2t3PFjm9JTGkNkOU8-29" value="editorial" style="rounded=1;arcSize=10;whiteSpace=wrap;html=1;align=center;fillColor=#f8cecc;strokeColor=#b85450;" vertex="1" parent="1">
          <mxGeometry x="560" y="390" width="100" height="40" as="geometry" />
        </mxCell>
        <mxCell id="mBw2t3PFjm9JTGkNkOU8-32" style="edgeStyle=orthogonalEdgeStyle;rounded=0;orthogonalLoop=1;jettySize=auto;html=1;exitX=0.5;exitY=0;exitDx=0;exitDy=0;entryX=0.5;entryY=1;entryDx=0;entryDy=0;endArrow=baseDash;endFill=0;" edge="1" parent="1" source="mBw2t3PFjm9JTGkNkOU8-30" target="mBw2t3PFjm9JTGkNkOU8-15">
          <mxGeometry relative="1" as="geometry" />
        </mxCell>
        <mxCell id="mBw2t3PFjm9JTGkNkOU8-34" style="edgeStyle=orthogonalEdgeStyle;rounded=0;orthogonalLoop=1;jettySize=auto;html=1;exitX=0;exitY=0.5;exitDx=0;exitDy=0;entryX=1;entryY=0.5;entryDx=0;entryDy=0;endArrow=baseDash;endFill=0;" edge="1" parent="1" source="mBw2t3PFjm9JTGkNkOU8-30" target="mBw2t3PFjm9JTGkNkOU8-29">
          <mxGeometry relative="1" as="geometry" />
        </mxCell>
        <mxCell id="mBw2t3PFjm9JTGkNkOU8-30" value="tiene" style="shape=rhombus;perimeter=rhombusPerimeter;whiteSpace=wrap;html=1;align=center;" vertex="1" parent="1">
          <mxGeometry x="850" y="380" width="120" height="60" as="geometry" />
        </mxCell>
        <mxCell id="mBw2t3PFjm9JTGkNkOU8-39" style="edgeStyle=orthogonalEdgeStyle;rounded=0;orthogonalLoop=1;jettySize=auto;html=1;exitX=1;exitY=0.5;exitDx=0;exitDy=0;entryX=0;entryY=0.5;entryDx=0;entryDy=0;endArrow=baseDash;endFill=0;" edge="1" parent="1" source="mBw2t3PFjm9JTGkNkOU8-35" target="mBw2t3PFjm9JTGkNkOU8-29">
          <mxGeometry relative="1" as="geometry" />
        </mxCell>
        <mxCell id="mBw2t3PFjm9JTGkNkOU8-35" value="id_editorial" style="ellipse;whiteSpace=wrap;html=1;align=center;fontStyle=4;fillColor=#f8cecc;strokeColor=#b85450;" vertex="1" parent="1">
          <mxGeometry x="330" y="320" width="100" height="40" as="geometry" />
        </mxCell>
        <mxCell id="mBw2t3PFjm9JTGkNkOU8-40" style="edgeStyle=orthogonalEdgeStyle;rounded=0;orthogonalLoop=1;jettySize=auto;html=1;exitX=1;exitY=0.5;exitDx=0;exitDy=0;endArrow=baseDash;endFill=0;" edge="1" parent="1" source="mBw2t3PFjm9JTGkNkOU8-36">
          <mxGeometry relative="1" as="geometry">
            <mxPoint x="560" y="410" as="targetPoint" />
          </mxGeometry>
        </mxCell>
        <mxCell id="mBw2t3PFjm9JTGkNkOU8-36" value="direccion" style="ellipse;whiteSpace=wrap;html=1;align=center;fillColor=#f8cecc;strokeColor=#b85450;" vertex="1" parent="1">
          <mxGeometry x="330" y="410" width="100" height="40" as="geometry" />
        </mxCell>
        <mxCell id="mBw2t3PFjm9JTGkNkOU8-41" style="edgeStyle=orthogonalEdgeStyle;rounded=0;orthogonalLoop=1;jettySize=auto;html=1;exitX=1;exitY=0.5;exitDx=0;exitDy=0;entryX=0;entryY=0.5;entryDx=0;entryDy=0;endArrow=baseDash;endFill=0;" edge="1" parent="1" source="mBw2t3PFjm9JTGkNkOU8-37" target="mBw2t3PFjm9JTGkNkOU8-29">
          <mxGeometry relative="1" as="geometry" />
        </mxCell>
        <mxCell id="mBw2t3PFjm9JTGkNkOU8-37" value="provedor" style="ellipse;whiteSpace=wrap;html=1;align=center;fillColor=#f8cecc;strokeColor=#b85450;" vertex="1" parent="1">
          <mxGeometry x="330" y="490" width="100" height="40" as="geometry" />
        </mxCell>
        <mxCell id="mBw2t3PFjm9JTGkNkOU8-42" style="edgeStyle=orthogonalEdgeStyle;rounded=0;orthogonalLoop=1;jettySize=auto;html=1;exitX=1;exitY=0.5;exitDx=0;exitDy=0;entryX=0;entryY=0.5;entryDx=0;entryDy=0;endArrow=baseDash;endFill=0;" edge="1" parent="1" source="mBw2t3PFjm9JTGkNkOU8-38" target="mBw2t3PFjm9JTGkNkOU8-29">
          <mxGeometry relative="1" as="geometry" />
        </mxCell>
        <mxCell id="mBw2t3PFjm9JTGkNkOU8-38" value="autor" style="ellipse;whiteSpace=wrap;html=1;align=center;fillColor=#f8cecc;strokeColor=#b85450;" vertex="1" parent="1">
          <mxGeometry x="330" y="565" width="100" height="40" as="geometry" />
        </mxCell>
      </root>
    </mxGraphModel>
  </diagram>
  <diagram id="bvf2cJizarfIDshZYWsA" name="m er tienda de mascotas">
    <mxGraphModel dx="880" dy="426" grid="1" gridSize="10" guides="1" tooltips="1" connect="1" arrows="1" fold="1" page="1" pageScale="1" pageWidth="827" pageHeight="1169" math="0" shadow="0">
      <root>
        <mxCell id="0" />
        <mxCell id="1" parent="0" />
        <mxCell id="o-Hae5UajOWofFE8DdXJ-1" value="tienda" style="rounded=1;arcSize=10;whiteSpace=wrap;html=1;align=center;fillColor=#6a00ff;fontColor=#ffffff;strokeColor=#3700CC;" vertex="1" parent="1">
          <mxGeometry x="260" y="160" width="100" height="40" as="geometry" />
        </mxCell>
        <mxCell id="o-Hae5UajOWofFE8DdXJ-7" style="edgeStyle=orthogonalEdgeStyle;rounded=0;orthogonalLoop=1;jettySize=auto;html=1;exitX=1;exitY=0.5;exitDx=0;exitDy=0;entryX=0;entryY=0.5;entryDx=0;entryDy=0;endArrow=baseDash;endFill=0;" edge="1" parent="1" source="o-Hae5UajOWofFE8DdXJ-2" target="o-Hae5UajOWofFE8DdXJ-1">
          <mxGeometry relative="1" as="geometry" />
        </mxCell>
        <mxCell id="o-Hae5UajOWofFE8DdXJ-2" value="id_tienda" style="ellipse;whiteSpace=wrap;html=1;align=center;fontStyle=4;fillColor=#6a00ff;fontColor=#ffffff;strokeColor=#3700CC;" vertex="1" parent="1">
          <mxGeometry x="50" y="40" width="100" height="40" as="geometry" />
        </mxCell>
        <mxCell id="o-Hae5UajOWofFE8DdXJ-8" style="edgeStyle=orthogonalEdgeStyle;rounded=0;orthogonalLoop=1;jettySize=auto;html=1;exitX=1;exitY=0.5;exitDx=0;exitDy=0;entryX=0;entryY=0.5;entryDx=0;entryDy=0;endArrow=baseDash;endFill=0;" edge="1" parent="1" source="o-Hae5UajOWofFE8DdXJ-3" target="o-Hae5UajOWofFE8DdXJ-1">
          <mxGeometry relative="1" as="geometry" />
        </mxCell>
        <mxCell id="o-Hae5UajOWofFE8DdXJ-3" value="nombre" style="ellipse;whiteSpace=wrap;html=1;align=center;fillColor=#6a00ff;fontColor=#ffffff;strokeColor=#3700CC;" vertex="1" parent="1">
          <mxGeometry x="50" y="120" width="100" height="40" as="geometry" />
        </mxCell>
        <mxCell id="o-Hae5UajOWofFE8DdXJ-10" style="edgeStyle=orthogonalEdgeStyle;rounded=0;orthogonalLoop=1;jettySize=auto;html=1;exitX=1;exitY=0.5;exitDx=0;exitDy=0;entryX=0;entryY=0.5;entryDx=0;entryDy=0;endArrow=baseDash;endFill=0;" edge="1" parent="1" source="o-Hae5UajOWofFE8DdXJ-4" target="o-Hae5UajOWofFE8DdXJ-1">
          <mxGeometry relative="1" as="geometry" />
        </mxCell>
        <mxCell id="o-Hae5UajOWofFE8DdXJ-4" value="telefono" style="ellipse;whiteSpace=wrap;html=1;align=center;fillColor=#6a00ff;fontColor=#ffffff;strokeColor=#3700CC;" vertex="1" parent="1">
          <mxGeometry x="50" y="280" width="100" height="40" as="geometry" />
        </mxCell>
        <mxCell id="o-Hae5UajOWofFE8DdXJ-9" style="edgeStyle=orthogonalEdgeStyle;rounded=0;orthogonalLoop=1;jettySize=auto;html=1;exitX=1;exitY=0.5;exitDx=0;exitDy=0;entryX=0;entryY=0.5;entryDx=0;entryDy=0;endArrow=baseDash;endFill=0;" edge="1" parent="1" source="o-Hae5UajOWofFE8DdXJ-5" target="o-Hae5UajOWofFE8DdXJ-1">
          <mxGeometry relative="1" as="geometry" />
        </mxCell>
        <mxCell id="o-Hae5UajOWofFE8DdXJ-5" value="direccion" style="ellipse;whiteSpace=wrap;html=1;align=center;fillColor=#6a00ff;fontColor=#ffffff;strokeColor=#3700CC;" vertex="1" parent="1">
          <mxGeometry x="50" y="210" width="100" height="40" as="geometry" />
        </mxCell>
        <mxCell id="o-Hae5UajOWofFE8DdXJ-12" style="edgeStyle=orthogonalEdgeStyle;rounded=0;orthogonalLoop=1;jettySize=auto;html=1;entryX=1;entryY=0.5;entryDx=0;entryDy=0;endArrow=baseDash;endFill=0;" edge="1" parent="1" source="o-Hae5UajOWofFE8DdXJ-11" target="o-Hae5UajOWofFE8DdXJ-1">
          <mxGeometry relative="1" as="geometry" />
        </mxCell>
        <mxCell id="o-Hae5UajOWofFE8DdXJ-15" style="edgeStyle=orthogonalEdgeStyle;rounded=0;orthogonalLoop=1;jettySize=auto;html=1;exitX=1;exitY=0.5;exitDx=0;exitDy=0;endArrow=baseDash;endFill=0;" edge="1" parent="1" source="o-Hae5UajOWofFE8DdXJ-11" target="o-Hae5UajOWofFE8DdXJ-14">
          <mxGeometry relative="1" as="geometry" />
        </mxCell>
        <mxCell id="o-Hae5UajOWofFE8DdXJ-11" value="tiene" style="shape=rhombus;perimeter=rhombusPerimeter;whiteSpace=wrap;html=1;align=center;" vertex="1" parent="1">
          <mxGeometry x="520" y="150" width="120" height="60" as="geometry" />
        </mxCell>
        <mxCell id="o-Hae5UajOWofFE8DdXJ-14" value="cliente" style="rounded=1;arcSize=10;whiteSpace=wrap;html=1;align=center;fillColor=#60a917;fontColor=#ffffff;strokeColor=#2D7600;" vertex="1" parent="1">
          <mxGeometry x="720" y="160" width="100" height="40" as="geometry" />
        </mxCell>
        <mxCell id="o-Hae5UajOWofFE8DdXJ-20" style="edgeStyle=orthogonalEdgeStyle;rounded=0;orthogonalLoop=1;jettySize=auto;html=1;exitX=0;exitY=0.5;exitDx=0;exitDy=0;entryX=1;entryY=0.5;entryDx=0;entryDy=0;endArrow=baseDash;endFill=0;" edge="1" parent="1" source="o-Hae5UajOWofFE8DdXJ-16" target="o-Hae5UajOWofFE8DdXJ-14">
          <mxGeometry relative="1" as="geometry" />
        </mxCell>
        <mxCell id="o-Hae5UajOWofFE8DdXJ-16" value="id_cliente" style="ellipse;whiteSpace=wrap;html=1;align=center;fontStyle=4;fillColor=#60a917;fontColor=#ffffff;strokeColor=#2D7600;" vertex="1" parent="1">
          <mxGeometry x="930" y="40" width="100" height="40" as="geometry" />
        </mxCell>
        <mxCell id="o-Hae5UajOWofFE8DdXJ-21" style="edgeStyle=orthogonalEdgeStyle;rounded=0;orthogonalLoop=1;jettySize=auto;html=1;exitX=0;exitY=0.5;exitDx=0;exitDy=0;entryX=1;entryY=0.5;entryDx=0;entryDy=0;endArrow=baseDash;endFill=0;" edge="1" parent="1" source="o-Hae5UajOWofFE8DdXJ-17" target="o-Hae5UajOWofFE8DdXJ-14">
          <mxGeometry relative="1" as="geometry" />
        </mxCell>
        <mxCell id="o-Hae5UajOWofFE8DdXJ-17" value="nombre" style="ellipse;whiteSpace=wrap;html=1;align=center;fillColor=#60a917;fontColor=#ffffff;strokeColor=#2D7600;" vertex="1" parent="1">
          <mxGeometry x="930" y="100" width="100" height="40" as="geometry" />
        </mxCell>
        <mxCell id="o-Hae5UajOWofFE8DdXJ-22" style="edgeStyle=orthogonalEdgeStyle;rounded=0;orthogonalLoop=1;jettySize=auto;html=1;exitX=0;exitY=0.5;exitDx=0;exitDy=0;entryX=1;entryY=0.5;entryDx=0;entryDy=0;endArrow=baseDash;endFill=0;" edge="1" parent="1" source="o-Hae5UajOWofFE8DdXJ-18" target="o-Hae5UajOWofFE8DdXJ-14">
          <mxGeometry relative="1" as="geometry" />
        </mxCell>
        <mxCell id="o-Hae5UajOWofFE8DdXJ-18" value="direccion" style="ellipse;whiteSpace=wrap;html=1;align=center;fillColor=#60a917;fontColor=#ffffff;strokeColor=#2D7600;" vertex="1" parent="1">
          <mxGeometry x="930" y="170" width="100" height="40" as="geometry" />
        </mxCell>
        <mxCell id="o-Hae5UajOWofFE8DdXJ-23" style="edgeStyle=orthogonalEdgeStyle;rounded=0;orthogonalLoop=1;jettySize=auto;html=1;exitX=0;exitY=0.5;exitDx=0;exitDy=0;entryX=1;entryY=0.5;entryDx=0;entryDy=0;endArrow=baseDash;endFill=0;" edge="1" parent="1" source="o-Hae5UajOWofFE8DdXJ-19" target="o-Hae5UajOWofFE8DdXJ-14">
          <mxGeometry relative="1" as="geometry" />
        </mxCell>
        <mxCell id="o-Hae5UajOWofFE8DdXJ-19" value="telefono" style="ellipse;whiteSpace=wrap;html=1;align=center;fillColor=#60a917;fontColor=#ffffff;strokeColor=#2D7600;" vertex="1" parent="1">
          <mxGeometry x="930" y="230" width="100" height="40" as="geometry" />
        </mxCell>
        <mxCell id="AjwULHNfenr1Doud758r-5" style="edgeStyle=orthogonalEdgeStyle;rounded=0;orthogonalLoop=1;jettySize=auto;html=1;exitX=0.5;exitY=1;exitDx=0;exitDy=0;entryX=0.5;entryY=0;entryDx=0;entryDy=0;endArrow=baseDash;endFill=0;" edge="1" parent="1" source="AjwULHNfenr1Doud758r-1" target="AjwULHNfenr1Doud758r-4">
          <mxGeometry relative="1" as="geometry" />
        </mxCell>
        <mxCell id="AjwULHNfenr1Doud758r-1" value="tiene" style="shape=rhombus;perimeter=rhombusPerimeter;whiteSpace=wrap;html=1;align=center;" vertex="1" parent="1">
          <mxGeometry x="700" y="350" width="120" height="60" as="geometry" />
        </mxCell>
        <mxCell id="AjwULHNfenr1Doud758r-3" style="edgeStyle=orthogonalEdgeStyle;rounded=0;orthogonalLoop=1;jettySize=auto;html=1;exitX=0.5;exitY=0;exitDx=0;exitDy=0;entryX=0.41;entryY=1.05;entryDx=0;entryDy=0;entryPerimeter=0;endArrow=baseDash;endFill=0;" edge="1" parent="1" source="AjwULHNfenr1Doud758r-1" target="o-Hae5UajOWofFE8DdXJ-14">
          <mxGeometry relative="1" as="geometry" />
        </mxCell>
        <mxCell id="AjwULHNfenr1Doud758r-4" value="mascota" style="rounded=1;arcSize=10;whiteSpace=wrap;html=1;align=center;fillColor=#1ba1e2;fontColor=#ffffff;strokeColor=#006EAF;" vertex="1" parent="1">
          <mxGeometry x="700" y="545" width="100" height="40" as="geometry" />
        </mxCell>
        <mxCell id="AjwULHNfenr1Doud758r-11" style="edgeStyle=orthogonalEdgeStyle;rounded=0;orthogonalLoop=1;jettySize=auto;html=1;exitX=1;exitY=0.5;exitDx=0;exitDy=0;entryX=0;entryY=0.5;entryDx=0;entryDy=0;endArrow=baseDash;endFill=0;" edge="1" parent="1" source="AjwULHNfenr1Doud758r-6" target="AjwULHNfenr1Doud758r-4">
          <mxGeometry relative="1" as="geometry" />
        </mxCell>
        <mxCell id="AjwULHNfenr1Doud758r-6" value="id_mascota" style="ellipse;whiteSpace=wrap;html=1;align=center;fontStyle=4;fillColor=#1ba1e2;fontColor=#ffffff;strokeColor=#006EAF;" vertex="1" parent="1">
          <mxGeometry x="480" y="440" width="100" height="40" as="geometry" />
        </mxCell>
        <mxCell id="AjwULHNfenr1Doud758r-12" style="edgeStyle=orthogonalEdgeStyle;rounded=0;orthogonalLoop=1;jettySize=auto;html=1;exitX=1;exitY=0.5;exitDx=0;exitDy=0;entryX=0;entryY=0.5;entryDx=0;entryDy=0;endArrow=baseDash;endFill=0;" edge="1" parent="1" source="AjwULHNfenr1Doud758r-7" target="AjwULHNfenr1Doud758r-4">
          <mxGeometry relative="1" as="geometry" />
        </mxCell>
        <mxCell id="AjwULHNfenr1Doud758r-7" value="nombre" style="ellipse;whiteSpace=wrap;html=1;align=center;fillColor=#1ba1e2;fontColor=#ffffff;strokeColor=#006EAF;" vertex="1" parent="1">
          <mxGeometry x="480" y="510" width="100" height="40" as="geometry" />
        </mxCell>
        <mxCell id="AjwULHNfenr1Doud758r-14" style="edgeStyle=orthogonalEdgeStyle;rounded=0;orthogonalLoop=1;jettySize=auto;html=1;exitX=1;exitY=0.5;exitDx=0;exitDy=0;entryX=0;entryY=0.5;entryDx=0;entryDy=0;endArrow=baseDash;endFill=0;" edge="1" parent="1" source="AjwULHNfenr1Doud758r-8" target="AjwULHNfenr1Doud758r-4">
          <mxGeometry relative="1" as="geometry" />
        </mxCell>
        <mxCell id="AjwULHNfenr1Doud758r-8" value="raza" style="ellipse;whiteSpace=wrap;html=1;align=center;fillColor=#1ba1e2;fontColor=#ffffff;strokeColor=#006EAF;" vertex="1" parent="1">
          <mxGeometry x="480" y="580" width="100" height="40" as="geometry" />
        </mxCell>
        <mxCell id="AjwULHNfenr1Doud758r-15" style="edgeStyle=orthogonalEdgeStyle;rounded=0;orthogonalLoop=1;jettySize=auto;html=1;exitX=1;exitY=0.5;exitDx=0;exitDy=0;entryX=0;entryY=0.5;entryDx=0;entryDy=0;endArrow=baseDash;endFill=0;" edge="1" parent="1" source="AjwULHNfenr1Doud758r-9" target="AjwULHNfenr1Doud758r-4">
          <mxGeometry relative="1" as="geometry" />
        </mxCell>
        <mxCell id="AjwULHNfenr1Doud758r-9" value="edad" style="ellipse;whiteSpace=wrap;html=1;align=center;fillColor=#1ba1e2;fontColor=#ffffff;strokeColor=#006EAF;" vertex="1" parent="1">
          <mxGeometry x="480" y="650" width="100" height="40" as="geometry" />
        </mxCell>
        <mxCell id="AjwULHNfenr1Doud758r-16" style="edgeStyle=orthogonalEdgeStyle;rounded=0;orthogonalLoop=1;jettySize=auto;html=1;exitX=1;exitY=0.5;exitDx=0;exitDy=0;entryX=0;entryY=0.5;entryDx=0;entryDy=0;endArrow=baseDash;endFill=0;" edge="1" parent="1" source="AjwULHNfenr1Doud758r-10" target="AjwULHNfenr1Doud758r-4">
          <mxGeometry relative="1" as="geometry" />
        </mxCell>
        <mxCell id="AjwULHNfenr1Doud758r-10" value="id_cliente" style="ellipse;whiteSpace=wrap;html=1;align=center;fillColor=#1ba1e2;fontColor=#ffffff;strokeColor=#006EAF;" vertex="1" parent="1">
          <mxGeometry x="480" y="730" width="100" height="40" as="geometry" />
        </mxCell>
      </root>
    </mxGraphModel>
  </diagram>
</mxfile>
